PathFileType	4	(X/Y/Z)	C:\Users\Basilio\Documents\Thesis Gigler\squatting_fais\c3dfiles\047\SLS_pre_back3\markers_experimental.trc
DataRate	CameraRate	NumFrames	NumMarkers	Units	OrigDataRate	OrigDataStartFrame	OrigNumFrames
200.000000	200.000000	4	61	mm	200.000000	796	1274
Frame#	Time	FHD			LBHD			RBHD			C7			T10			CLAV			LSHO			LUUPA			LMUPA			LDUPA			LLEP			LMEP			LRAD			LUL			LRFIN			RSHO			RUPA1			RMUPA			RDUPA			RLEP			RMEP			RRAD			RUL			RUFIN			LASI			RASI			USACR			LSACR			RSACR			LTHI1			LTHI2			LTHI3			LTHI4			LLFC			LTIB1			LTIB2			LTIB3			LTIB4			LLMAL			LMMAL			LMT1			LMT2			LMT5			RTHI			RTHI2			RTHI3			RTHI4			RLFC			RMFC			RTIB1			RTIB2			RTIB3			RTIB4			RLMAL			RMMAL			RHEE			RMT1			RMT2			RMT5			LMFC			*60			
		X1	Y1	Z1	X2	Y2	Z2	X3	Y3	Z3	X4	Y4	Z4	X5	Y5	Z5	X6	Y6	Z6	X7	Y7	Z7	X8	Y8	Z8	X9	Y9	Z9	X10	Y10	Z10	X11	Y11	Z11	X12	Y12	Z12	X13	Y13	Z13	X14	Y14	Z14	X15	Y15	Z15	X16	Y16	Z16	X17	Y17	Z17	X18	Y18	Z18	X19	Y19	Z19	X20	Y20	Z20	X21	Y21	Z21	X22	Y22	Z22	X23	Y23	Z23	X24	Y24	Z24	X25	Y25	Z25	X26	Y26	Z26	X27	Y27	Z27	X28	Y28	Z28	X29	Y29	Z29	X30	Y30	Z30	X31	Y31	Z31	X32	Y32	Z32	X33	Y33	Z33	X34	Y34	Z34	X35	Y35	Z35	X36	Y36	Z36	X37	Y37	Z37	X38	Y38	Z38	X39	Y39	Z39	X40	Y40	Z40	X41	Y41	Z41	X42	Y42	Z42	X43	Y43	Z43	X44	Y44	Z44	X45	Y45	Z45	X46	Y46	Z46	X47	Y47	Z47	X48	Y48	Z48	X49	Y49	Z49	X50	Y50	Z50	X51	Y51	Z51	X52	Y52	Z52	X53	Y53	Z53	X54	Y54	Z54	X55	Y55	Z55	X56	Y56	Z56	X57	Y57	Z57	X58	Y58	Z58	X59	Y59	Z59	X60	Y60	Z60	X61	Y61	Z61	

797	3.98	111.5429382324219	1313.555053710938	-1146.75927734375	-69.01580047607423	1302.516235351563	-1169.18505859375	-42.82759094238282	1305.4384765625	-1022.742736816406	-123.8875198364258	1173.398193359375	-1088.229736328125	-328.6550903320313	968.855407714844	-1015.60888671875	-28.71534538269044	1044.923217773438	-1112.327026367188	-86.60497283935548	1089.036865234375	-1260.552734375	-73.34021759033205	939.5057373046877	-1364.79443359375	-24.3613624572754	952.4502563476565	-1363.285888671875	-21.4223747253418	894.2873535156252	-1379.921508789063	44.75996780395509	863.8548583984377	-1388.980102539063	24.48666763305665	815.1038208007815	-1316.4345703125	239.322006225586	917.945251464844	-1228.547729492188	260.8044128417969	845.163757324219	-1226.348266601563	331.9082031250001	908.7709960937502	-1225.443115234375	-13.25640010833741	1104.053833007813	-964.582946777344	45.46017074584962	955.3900146484377	-860.524841308594	84.8621292114258	961.9898681640627	-888.689392089844	93.00101470947267	904.9849853515627	-869.2111816406252	155.8142852783203	868.9111938476565	-893.2614746093752	104.3208770751953	813.2219238281252	-939.9843750000002	nan	nan	nan	313.5723266601563	850.6087036132815	-1103.59765625	309.1053466796876	935.968688964844	-1141.048095703125	-318.7076416015626	702.0877075195314	-1084.869995117188	-306.3860778808594	714.8358764648439	-857.838806152344	-432.5700988769532	864.4577636718752	-976.9770507812502	-458.7700805664064	842.427185058594	-1002.161804199219	-450.4262084960939	842.0958251953127	-944.8023681640627	-365.3251342773438	630.0161132812501	-1170.14599609375	-283.7953186035157	610.5498657226564	-1174.081665039063	-255.6242828369141	647.4855957031251	-1159.027099609375	-259.7731018066407	556.3936767578126	-1181.005493164063	-146.7586212158203	436.0453186035157	-1163.87890625	-174.1541595458985	288.0151062011719	-1042.867553710938	-199.8780517578126	240.1792297363282	-1110.361572265625	-192.4247741699219	236.689437866211	-1062.777954101563	-246.2938385009766	186.9146728515625	-1025.685302734375	-341.3878173828126	121.9168014526367	-1063.41455078125	-315.7980041503907	143.2703552246094	-976.1781005859377	-207.5093841552735	64.09860229492189	-991.9468994140627	-208.1161041259766	61.23028945922853	-1036.655639648438	-257.8656005859376	49.73561096191408	-1081.006103515625	-405.9043884277345	568.0805664062501	-756.9385375976564	-368.3903503417969	512.8901977539064	-754.0537109375001	-339.4103698730469	511.0294494628907	-767.3105468750001	-396.8181457519532	433.838836669922	-746.4125976562501	-401.2685852050782	303.1860351562501	-761.0878906250001	-411.783660888672	277.5730285644532	-891.5572509765627	-506.0155029296876	242.0525970458985	-762.8865356445314	-585.4506225585939	309.9412231445313	-723.8994750976564	-584.7568969726564	262.9283752441407	-730.5819091796876	-636.4811401367189	248.0066223144532	-756.8950805664064	-785.750671386719	313.9613647460938	-719.3267822265626	-777.4940185546877	273.3385925292969	-802.1413574218752	-804.807556152344	366.0820922851563	-780.0188598632815	-872.612731933594	168.3054809570313	-771.6569824218752	-871.6074829101565	166.7563018798828	-729.0875854492189	-888.5545043945315	227.6886749267579	-681.3002319335939	-106.8864440917969	446.8273315429689	-1040.020263671875	nan	nan	nan	
798	3.985	111.5022506713867	1313.824829101563	-1146.678588867188	-69.18969726562501	1302.541870117188	-1168.973266601563	-42.88818359375001	1305.419311523438	-1022.548278808594	-123.9980163574219	1173.401489257813	-1088.326904296875	-328.9296875000001	969.0317382812502	-1015.638305664063	-28.65129470825196	1044.8427734375	-1112.225219726563	-86.58461761474611	1089.08203125	-1260.52978515625	-73.69017791748048	939.5732421875002	-1364.6279296875	-24.59594535827637	952.680114746094	-1363.314819335938	-22.30597686767578	894.613220214844	-1379.753051757813	44.42556762695313	863.9439697265627	-1388.866088867188	24.52129364013673	815.244567871094	-1316.534301757813	239.1936340332032	918.0806884765627	-1228.569091796875	260.6333007812501	845.2945556640627	-1226.363891601563	331.7177124023438	908.9493408203127	-1225.44482421875	-13.53342437744141	1104.046142578125	-964.4739379882815	45.40578079223634	955.381774902344	-860.3712158203127	84.86638641357423	962.0546875000002	-888.6743164062502	93.01136779785158	905.0278930664065	-869.149597167969	155.8377227783203	868.950378417969	-893.2257080078127	104.3394393920899	813.2485351562502	-939.9548339843752	nan	nan	nan	313.4251403808594	850.6564941406252	-1103.56494140625	308.9509582519532	935.9805297851565	-1140.931396484375	-318.7408142089844	702.2269897460939	-1084.713745117188	-306.4483642578126	714.8790283203126	-857.665222167969	-432.7924194335939	864.5025024414065	-976.761413574219	-458.9412841796876	842.385925292969	-1001.986877441406	-450.5697631835939	842.081970214844	-944.6400146484377	-365.5984802246094	630.0414428710939	-1170.040771484375	-283.9976196289063	610.5760498046876	-1173.895385742188	-255.1833190917969	647.3937988281251	-1159.088500976563	-259.9295043945313	556.4138793945314	-1180.90234375	-146.8534393310547	436.0595092773439	-1163.734252929688	-174.2906494140625	288.0872497558594	-1042.703735351563	-199.9114990234376	240.279281616211	-1110.236572265625	-192.4305877685547	236.8236389160157	-1062.673950195313	-246.2909851074219	186.9385375976563	-1025.607543945313	-341.3795166015626	121.906494140625	-1063.355346679688	-315.8413696289063	143.2471160888672	-976.0806884765627	-207.3269653320313	64.13311004638673	-991.8804321289065	-208.0399169921876	61.26345825195314	-1036.61474609375	-258.5469360351563	49.63544845581056	-1080.293090820313	-405.9609985351564	568.0563354492189	-756.8478393554689	-368.4026794433594	512.9526367187501	-753.8649902343751	-339.4538879394532	511.0776672363282	-767.1140136718751	-396.818572998047	433.7940673828126	-746.3093261718751	-401.2112426757814	303.2734069824219	-760.9177246093751	-411.5791320800782	277.5819091796876	-891.4610595703127	-506.0465698242189	242.0593719482422	-762.6309204101564	-585.4594116210939	310.0526123046876	-723.7527465820314	-584.7517089843751	262.9484863281251	-730.4423217773439	-636.4724121093751	248.0731964111329	-756.7333374023439	-785.7173461914065	314.2012329101563	-719.0527954101564	-777.503601074219	273.5114135742188	-801.886657714844	-804.7918090820315	366.3498840332032	-779.830505371094	-872.3734130859377	169.0865325927735	-772.641784667969	-871.6370239257815	166.8300323486328	-728.5513916015626	-888.4968872070315	227.804428100586	-681.0451049804689	-106.8508453369141	446.5603942871095	-1040.676635742188	nan	nan	nan	
799	3.99	111.0842208862305	1313.591186523438	-1146.482421875	-69.30978393554689	1302.618041992188	-1168.781982421875	-43.45685577392579	1305.164306640625	-1021.554809570313	-124.1151123046875	1173.30224609375	-1087.81298828125	-328.8357238769532	968.8701171875002	-1015.290405273438	-28.9180030822754	1044.872924804688	-1112.178344726563	-86.75291442871095	1089.1396484375	-1260.44482421875	-73.8970184326172	939.6538696289065	-1364.474853515625	-24.80692863464356	952.7314453125002	-1363.228881835938	-22.47561645507813	894.6694335937502	-1379.67822265625	44.19050216674805	863.9883422851565	-1388.737915039063	24.32951736450196	815.2919921875002	-1316.439208984375	239.0166778564454	918.209411621094	-1228.604858398438	260.5337829589844	845.3704833984377	-1226.354858398438	331.5274353027344	909.1309814453127	-1225.447998046875	-13.73839950561524	1103.964965820313	-964.3257446289065	45.42356109619141	955.4036254882815	-860.3482666015627	84.7622528076172	962.049987792969	-888.5930786132815	92.97789764404298	905.0745239257815	-869.091979980469	155.7823791503907	868.973327636719	-893.1516113281252	104.3017883300782	813.2263793945315	-939.793151855469	nan	nan	nan	313.2350769042969	850.7451171875002	-1103.561401367188	308.5999450683594	936.0638427734377	-1140.790283203125	-318.7548828125001	702.3017578125001	-1084.452514648438	-306.5565490722657	714.8599243164064	-857.3714599609377	-433.0320129394532	864.4479980468752	-976.4900512695315	-459.0510864257814	842.3948364257815	-1001.784790039063	-450.6748657226564	842.0980224609377	-944.4321289062502	-365.6470947265626	630.0742187500001	-1169.836547851563	-284.1688537597657	610.6516723632814	-1173.755004882813	-255.2698974609376	647.5012817382814	-1159.022216796875	-260.0594482421876	556.4282226562501	-1180.788940429688	-146.9780578613282	436.1217651367189	-1163.573364257813	-174.2918395996094	288.1057739257813	-1042.652099609375	-199.8831481933594	240.2697448730469	-1110.099487304688	-192.4712066650391	236.8788757324219	-1062.5029296875	-246.3484954833985	186.9217987060547	-1025.398315429688	-341.3557739257813	121.9475479125977	-1063.286743164063	-315.9731750488282	143.1884460449219	-976.031921386719	-207.3404541015626	64.16253662109376	-991.8169555664065	-208.3021087646485	60.61963272094728	-1036.717895507813	-257.9094238281251	49.84495162963869	-1080.9375	-406.038055419922	568.0335693359376	-756.8229370117189	-368.4415283203126	512.8784179687501	-753.7463989257814	-339.5338439941407	511.0815734863282	-767.1262817382814	-396.854217529297	433.7395019531251	-746.2338256835939	-401.1924743652345	303.2075195312501	-761.0103149414064	-411.6000366210939	277.6000061035157	-891.4803466796877	-506.0628662109376	242.0577087402344	-762.8839721679689	-585.3757934570314	310.0708007812501	-723.6618041992189	-584.7379760742189	263.0906982421876	-730.2335815429689	-636.4586791992189	248.1249694824219	-756.6384277343751	-785.6518554687502	314.4065856933594	-718.8816528320314	-777.5269775390627	273.7463684082032	-801.6558227539065	-804.6989746093752	366.6101684570313	-779.5551757812502	-872.1164550781252	169.4864654541016	-772.6253051757815	-871.8086547851565	167.1360931396485	-728.8630981445314	-888.4234619140627	228.0056152343751	-680.7686157226564	-106.9146575927735	446.5975036621095	-1040.718994140625	nan	nan	nan	
800	3.995	111.0994110107422	1313.687866210938	-1146.44775390625	-69.5593719482422	1302.68701171875	-1168.542358398438	-43.05676651000977	1305.34619140625	-1022.333068847656	-124.2812881469727	1173.283813476563	-1087.74462890625	-328.9682617187501	968.8672485351565	-1015.1376953125	-28.8999252319336	1044.863891601563	-1112.116333007813	-87.17385864257814	1089.162109375	-1260.219482421875	-74.03024291992189	939.7242431640627	-1364.383544921875	-25.02381896972657	952.7978515625002	-1363.16162109375	-22.67767906188965	894.7700195312502	-1379.575805664063	43.98912429809571	863.9980468750002	-1388.655395507813	24.09570693969727	815.361022949219	-1316.350219726563	238.815658569336	918.2901000976565	-1228.53076171875	260.3636474609376	845.4107666015627	-1226.376342773438	331.6603393554688	909.3100585937502	-1225.656494140625	-13.82991790771485	1103.933715820313	-964.3239746093752	45.42723083496094	955.4185791015627	-860.3106689453127	84.81607055664064	962.174987792969	-888.751647949219	92.98221588134767	905.1113281250002	-869.0344238281252	155.7658843994141	869.0276489257815	-893.0972900390627	104.3269882202149	813.2468261718752	-939.7486572265627	nan	nan	nan	313.0406188964844	850.8188476562502	-1103.52294921875	308.4729309082032	936.1719970703127	-1140.938110351563	-318.7220764160157	702.5440673828126	-1084.374267578125	-306.6367492675782	714.9664916992189	-857.3206787109377	-433.1975402832032	864.5081787109377	-976.3112792968752	-459.203094482422	842.3240966796877	-1001.648254394531	-450.8818664550782	842.064147949219	-944.2549438476565	-365.8721008300782	630.0302734375001	-1169.707641601563	-284.4104309082032	610.6372680664064	-1173.583740234375	-255.449447631836	647.5730590820314	-1158.898559570313	-260.2215270996094	556.3867187500001	-1180.66748046875	-147.0721893310547	436.2416381835939	-1163.46826171875	-174.3041534423828	288.0950317382813	-1042.496826171875	-199.753646850586	240.2308349609376	-1109.880859375	-192.5241699218751	236.8843383789063	-1062.192016601563	-246.3240509033204	186.9326324462891	-1025.224487304688	-341.1956481933594	121.9571380615235	-1063.230224609375	-316.0588378906251	143.1906127929688	-975.8872680664065	-207.3179473876954	64.13861083984376	-991.7932739257815	-208.3034973144532	60.65095138549806	-1036.705688476563	-257.8480529785157	49.86743164062501	-1080.915161132813	-406.0632629394532	568.0199584960939	-756.6579589843751	-368.5811767578126	512.8291625976564	-753.6081542968751	-339.6664123535157	511.0859680175782	-767.0472412109376	-396.8775329589845	433.7034912109376	-746.1444091796876	-401.1539001464845	303.2634582519532	-760.9147338867189	-411.7147216796876	277.6227416992188	-891.3491821289065	-506.0694580078126	242.0788116455079	-762.8247070312501	-585.3283081054689	310.1617736816407	-723.5137939453126	-584.6831665039064	263.1625976562501	-730.1113891601564	-636.5883178710939	248.2082519531251	-756.2960205078126	-785.5410766601565	314.5568847656251	-718.6469116210939	-777.568298339844	273.8038330078126	-801.2971801757815	-804.5903320312502	366.8196411132813	-779.2156982421877	-872.446716308594	169.8812561035157	-771.410583496094	-871.8198852539065	167.187744140625	-728.4261474609376	-888.4050292968752	228.3230743408204	-680.4674072265626	-107.1614990234375	446.699188232422	-1040.66650390625	nan	nan	nan	
